<svg width="24" height="24" viewBox="0 0 24 24" xmlns="http://www.w3.org/2000/svg">
    <path
        d="M9.683 11.2944C12.3567 11.2944 14.5242 8.76603 14.5242 5.64718C14.5242 2.52833 12.3567 0 9.683 0C7.00928 0 4.8418 2.52833 4.8418 5.64718C4.8418 8.76603 7.00928 11.2944 9.683 11.2944Z" />
    <path
        d="M10.4933 12.7353C10.227 12.7211 9.96078 12.707 9.68241 12.707C6.75348 12.707 4.0182 13.6529 1.68232 15.2765C0.617254 16.0106 0 17.3942 0 18.8483V22.5896H11.2074C10.2513 20.9943 9.68241 19.046 9.68241 16.9424C9.68241 15.4318 9.98499 14.02 10.4933 12.7353Z" />
    <path
        d="M22.693 16.9418C22.693 16.6312 22.6567 16.3488 22.6204 16.0524L24.0001 14.6264L22.7898 12.184L21.0349 12.8758C20.6476 12.4946 20.2119 12.1982 19.7277 11.9864L19.3647 9.88281H16.944L16.581 11.9864C16.0968 12.1982 15.6611 12.4946 15.2738 12.8758L13.5189 12.184L12.3086 14.6264L13.6883 16.0524C13.652 16.3488 13.6157 16.6312 13.6157 16.9418C13.6157 17.2524 13.652 17.5347 13.6883 17.8312L12.3086 19.2571L13.5189 21.6995L15.2738 21.0078C15.6611 21.3889 16.0968 21.6854 16.581 21.8972L16.944 24.0008H19.3647L19.7277 21.8972C20.2119 21.6854 20.6476 21.3889 21.0349 21.0078L22.7898 21.6995L24.0001 19.2571L22.6204 17.8312C22.6567 17.5347 22.693 17.2524 22.693 16.9418ZM18.1543 19.7654C16.823 19.7654 15.7337 18.4948 15.7337 16.9418C15.7337 15.3888 16.823 14.1182 18.1543 14.1182C19.4857 14.1182 20.575 15.3888 20.575 16.9418C20.575 18.4948 19.4857 19.7654 18.1543 19.7654Z" />
</svg>