<svg width="24" height="24" viewBox="0 0 24 24" xmlns="http://www.w3.org/2000/svg">
    <path
        d="M18.75 6.75081H15.0187C14.7459 6.73488 9.99188 6.40019 5.46469 2.60331C5.24607 2.41971 4.97959 2.3023 4.69656 2.26489C4.41353 2.22748 4.12571 2.27161 3.86689 2.39211C3.60807 2.51261 3.38902 2.70447 3.23546 2.94514C3.0819 3.18582 3.00022 3.46532 3 3.75081V18.7508C3.00004 19.0364 3.0816 19.316 3.23508 19.5568C3.38857 19.7976 3.60761 19.9896 3.86646 20.1103C4.12532 20.2309 4.41322 20.2751 4.69633 20.2377C4.97945 20.2003 5.24601 20.0829 5.46469 19.8993C9.00563 16.9293 12.6834 16.078 14.25 15.8399V18.8136C14.2497 19.0608 14.3105 19.3042 14.4269 19.5222C14.5434 19.7403 14.7119 19.9261 14.9175 20.0633L15.9487 20.7505C16.1481 20.8835 16.3764 20.9669 16.6145 20.9936C16.8527 21.0202 17.0938 20.9894 17.3176 20.9038C17.5414 20.8181 17.7414 20.6801 17.901 20.5013C18.0605 20.3224 18.1748 20.1079 18.2344 19.8758L19.3378 15.7171C20.4785 15.5769 21.5224 15.0057 22.2553 14.1204C22.9882 13.2352 23.3546 12.1031 23.2795 10.9563C23.2043 9.80946 22.6932 8.73488 21.8509 7.9529C21.0087 7.17093 19.8992 6.74083 18.75 6.75081ZM16.7812 19.4905V19.5008L15.75 18.8136V15.7508H17.775L16.7812 19.4905ZM18.75 14.2508H15.75V8.25081H18.75C19.5456 8.25081 20.3087 8.56688 20.8713 9.12949C21.4339 9.6921 21.75 10.4552 21.75 11.2508C21.75 12.0465 21.4339 12.8095 20.8713 13.3721C20.3087 13.9347 19.5456 14.2508 18.75 14.2508Z" />
</svg>