<svg width="24" height="24" viewBox="0 0 24 24" xmlns="http://www.w3.org/2000/svg">
    <path
        d="M9.683 11.2944C12.3567 11.2944 14.5242 8.76603 14.5242 5.64718C14.5242 2.52833 12.3567 0 9.683 0C7.00928 0 4.8418 2.52833 4.8418 5.64718C4.8418 8.76603 7.00928 11.2944 9.683 11.2944Z" />
    <path
        d="M10.4933 12.7353C10.227 12.7211 9.96078 12.707 9.68241 12.707C6.75348 12.707 4.0182 13.6529 1.68232 15.2765C0.617254 16.0106 0 17.3942 0 18.8483V22.5896H11.2074C10.2513 20.9943 9.68241 19.046 9.68241 16.9424C9.68241 15.4318 9.98499 14.02 10.4933 12.7353Z" />
    <path
        d="M22.8727 14.0256C22.7321 13.9417 22.5728 13.9166 22.4193 13.954C22.2658 13.9915 22.1268 14.0895 22.0236 14.2329L20.5111 16.2175L18.9029 11.8266C18.9028 11.8248 18.9028 11.823 18.9029 11.8211C18.8454 11.6693 18.7534 11.5407 18.6377 11.4505C18.522 11.3604 18.3875 11.3125 18.2502 11.3125C18.1129 11.3125 17.9784 11.3604 17.8627 11.4505C17.747 11.5407 17.655 11.6693 17.5975 11.8211C17.5976 11.823 17.5976 11.8248 17.5975 11.8266L15.9893 16.2175L14.4768 14.2329C14.373 14.0895 14.2335 13.9914 14.0796 13.9536C13.9257 13.9158 13.7659 13.9404 13.6246 14.0236C13.4833 14.1068 13.3682 14.2441 13.297 14.4144C13.2258 14.5847 13.2023 14.7787 13.2302 14.9668C13.2302 14.9728 13.2302 14.9782 13.2333 14.9843L14.2522 20.6647C14.2835 20.8647 14.3712 21.0451 14.5001 21.1749C14.629 21.3047 14.7911 21.3756 14.9583 21.3756H21.5425C21.7097 21.3755 21.8717 21.3045 22.0005 21.1747C22.1293 21.045 22.2169 20.8646 22.2482 20.6647L23.2671 14.9843C23.2671 14.9782 23.2671 14.9728 23.2702 14.9668C23.2986 14.7785 23.275 14.584 23.2031 14.4137C23.1312 14.2435 23.015 14.107 22.8727 14.0256ZM21.5452 20.4831L21.5425 20.5006H14.9579L14.9552 20.4831L13.9377 14.8131L13.944 14.8218L15.8307 17.2959C15.8711 17.349 15.9217 17.3892 15.978 17.4126C16.0343 17.4361 16.0944 17.4422 16.1531 17.4304C16.2118 17.4186 16.2672 17.3892 16.3142 17.3449C16.3613 17.3006 16.3986 17.2428 16.4228 17.1767L18.2502 12.1881L20.0781 17.1783C20.1023 17.2445 20.1396 17.3023 20.1866 17.3466C20.2337 17.3908 20.2891 17.4202 20.3477 17.432C20.4064 17.4438 20.4666 17.4377 20.5229 17.4143C20.5791 17.3908 20.6297 17.3507 20.6701 17.2975L22.5569 14.8235L22.5627 14.8131L21.5452 20.4831Z" />
</svg>