<svg width="24" height="24" viewBox="0 0 24 24" xmlns="http://www.w3.org/2000/svg">
    <path
        d="M12.0002 2.25C10.3169 2.24963 8.66213 2.68508 7.19704 3.51396C5.73194 4.34285 4.50641 5.53692 3.63971 6.97997C2.77302 8.42301 2.29469 10.0659 2.25129 11.7486C2.20789 13.4314 2.60089 15.0967 3.39205 16.5825L2.32799 19.7747C2.23985 20.039 2.22706 20.3226 2.29105 20.5938C2.35504 20.8649 2.49328 21.1129 2.69029 21.3099C2.88729 21.5069 3.13526 21.6451 3.40642 21.7091C3.67757 21.7731 3.96119 21.7603 4.22549 21.6722L7.41768 20.6081C8.72527 21.3036 10.1741 21.6921 11.6543 21.744C13.1344 21.7959 14.6069 21.51 15.9601 20.9079C17.3132 20.3057 18.5114 19.4033 19.4636 18.269C20.4159 17.1346 21.0972 15.7983 21.4559 14.3613C21.8146 12.9244 21.8412 11.4246 21.5337 9.97578C21.2263 8.52701 20.5928 7.16732 19.6813 5.99992C18.7699 4.83253 17.6045 3.88811 16.2736 3.23836C14.9427 2.58861 13.4812 2.25061 12.0002 2.25ZM7.87517 13.125C7.65267 13.125 7.43516 13.059 7.25016 12.9354C7.06515 12.8118 6.92096 12.6361 6.83581 12.4305C6.75066 12.225 6.72838 11.9988 6.77179 11.7805C6.8152 11.5623 6.92235 11.3618 7.07968 11.2045C7.23701 11.0472 7.43747 10.94 7.6557 10.8966C7.87393 10.8532 8.10013 10.8755 8.30569 10.9606C8.51126 11.0458 8.68696 11.19 8.81058 11.375C8.9342 11.56 9.00017 11.7775 9.00017 12C9.00017 12.2984 8.88165 12.5845 8.67067 12.7955C8.45969 13.0065 8.17354 13.125 7.87517 13.125ZM12.0002 13.125C11.7777 13.125 11.5602 13.059 11.3752 12.9354C11.1902 12.8118 11.046 12.6361 10.9608 12.4305C10.8757 12.225 10.8534 11.9988 10.8968 11.7805C10.9402 11.5623 11.0473 11.3618 11.2047 11.2045C11.362 11.0472 11.5625 10.94 11.7807 10.8966C11.9989 10.8532 12.2251 10.8755 12.4307 10.9606C12.6363 11.0458 12.812 11.19 12.9356 11.375C13.0592 11.56 13.1252 11.7775 13.1252 12C13.1252 12.2984 13.0066 12.5845 12.7957 12.7955C12.5847 13.0065 12.2985 13.125 12.0002 13.125ZM16.1252 13.125C15.9027 13.125 15.6852 13.059 15.5002 12.9354C15.3152 12.8118 15.171 12.6361 15.0858 12.4305C15.0007 12.225 14.9784 11.9988 15.0218 11.7805C15.0652 11.5623 15.1723 11.3618 15.3297 11.2045C15.487 11.0472 15.6875 10.94 15.9057 10.8966C16.1239 10.8532 16.3501 10.8755 16.5557 10.9606C16.7613 11.0458 16.937 11.19 17.0606 11.375C17.1842 11.56 17.2502 11.7775 17.2502 12C17.2502 12.2984 17.1316 12.5845 16.9207 12.7955C16.7097 13.0065 16.4235 13.125 16.1252 13.125Z"
/>
</svg>