<svg width="24" height="24" viewBox="0 0 24 24" xmlns="http://www.w3.org/2000/svg">
    <path
        d="M9.683 11.2944C12.3567 11.2944 14.5242 8.76603 14.5242 5.64718C14.5242 2.52833 12.3567 0 9.683 0C7.00928 0 4.8418 2.52833 4.8418 5.64718C4.8418 8.76603 7.00928 11.2944 9.683 11.2944Z" />
    <path
        d="M10.4933 12.7353C10.227 12.7211 9.96078 12.707 9.68241 12.707C6.75348 12.707 4.0182 13.6529 1.68232 15.2765C0.617254 16.0106 0 17.3942 0 18.8483V22.5896H11.2074C10.2513 20.9943 9.68241 19.046 9.68241 16.9424C9.68241 15.4318 9.98499 14.02 10.4933 12.7353Z" />
    <g clip-path="url(#clip0_2533_1531)">
        <path
            d="M23.8094 14.8638L18.4188 11.3638C18.3668 11.3301 18.3088 11.3125 18.2499 11.3125C18.191 11.3125 18.133 11.3301 18.081 11.3638L12.6904 14.8638C12.6329 14.9011 12.5848 14.9568 12.5512 15.0248C12.5177 15.0928 12.5 15.1706 12.5 15.2499C12.5 15.3292 12.5177 15.4071 12.5512 15.4751C12.5848 15.5431 12.6329 15.5987 12.6904 15.636L13.9374 16.4459V19.0939C13.937 19.3088 14.002 19.5163 14.1198 19.6763C14.7082 20.4742 16.0267 21.8124 18.2499 21.8124C18.987 21.8198 19.7187 21.6573 20.4061 21.3334V23.1249C20.4061 23.241 20.444 23.3522 20.5114 23.4343C20.5788 23.5163 20.6702 23.5624 20.7655 23.5624C20.8608 23.5624 20.9522 23.5163 21.0196 23.4343C21.087 23.3522 21.1249 23.241 21.1249 23.1249V20.9106C21.5935 20.5813 22.017 20.1648 22.38 19.6763C22.4978 19.5163 22.5628 19.3088 22.5624 19.0939V16.4459L23.8094 15.636C23.8669 15.5987 23.915 15.5431 23.9485 15.4751C23.9821 15.4071 23.9998 15.3292 23.9998 15.2499C23.9998 15.1706 23.9821 15.0928 23.9485 15.0248C23.915 14.9568 23.8669 14.9011 23.8094 14.8638ZM18.2499 20.9374C16.3061 20.9374 15.1629 19.7813 14.6561 19.0939V16.9124L18.081 19.136C18.133 19.1697 18.191 19.1874 18.2499 19.1874C18.3088 19.1874 18.3668 19.1697 18.4188 19.136L20.4061 17.8459V20.3802C19.8401 20.7017 19.1268 20.9374 18.2499 20.9374ZM21.8436 19.0917C21.6282 19.3827 21.3872 19.6441 21.1249 19.871V17.3789L21.8436 16.9124V19.0917ZM20.9452 16.5045L20.9353 16.4973L18.4197 14.8638C18.3358 14.8116 18.2383 14.8017 18.1484 14.8361C18.0585 14.8705 17.9833 14.9465 17.939 15.0478C17.8947 15.1491 17.8849 15.2675 17.9116 15.3775C17.9383 15.4875 17.9995 15.5804 18.0819 15.636L20.1815 16.9999L18.2499 18.2539L13.6229 15.2499L18.2499 12.2459L22.8768 15.2499L20.9452 16.5045Z" />
    </g>
    <defs>
        <clipPath id="clip0_2533_1531">
            <rect width="11.5" height="14" transform="translate(12.5 10)" />
        </clipPath>
    </defs>
</svg>