<svg width="24" height="24" viewBox="0 0 24 24" xmlns="http://www.w3.org/2000/svg">
    <path
        d="M21.3572 6.25875L21.3497 6.26719L15 13.0472V18.2494C15.0003 18.4968 14.9395 18.7405 14.8229 18.9587C14.7062 19.1769 14.5375 19.3628 14.3315 19.5L11.3315 21.5006C11.1055 21.6512 10.8427 21.7376 10.5714 21.7505C10.3001 21.7635 10.0303 21.7025 9.79095 21.5741C9.55157 21.4457 9.35155 21.2547 9.21225 21.0215C9.07294 20.7883 8.99957 20.5216 8.99998 20.25V13.0472L2.65029 6.26719L2.64279 6.25875C2.44755 6.04389 2.31886 5.77699 2.27232 5.49043C2.22579 5.20387 2.26341 4.90996 2.38063 4.64436C2.49785 4.37876 2.68962 4.15288 2.93269 3.99413C3.17575 3.83538 3.45966 3.75057 3.74997 3.75H20.25C20.5405 3.75003 20.8248 3.83444 21.0683 3.99298C21.3118 4.15152 21.504 4.37737 21.6216 4.64308C21.7391 4.90878 21.777 5.20292 21.7305 5.48973C21.6841 5.77655 21.5554 6.04371 21.36 6.25875H21.3572Z"
/>
</svg>