<svg width="24" height="24" viewBox="0 0 24 24" xmlns="http://www.w3.org/2000/svg">
    <path
        d="M9.683 11.2944C12.3567 11.2944 14.5242 8.76603 14.5242 5.64718C14.5242 2.52833 12.3567 0 9.683 0C7.00928 0 4.8418 2.52833 4.8418 5.64718C4.8418 8.76603 7.00928 11.2944 9.683 11.2944Z" />
    <path
        d="M10.4933 12.7353C10.227 12.7211 9.96078 12.707 9.68241 12.707C6.75348 12.707 4.0182 13.6529 1.68232 15.2765C0.617254 16.0106 0 17.3942 0 18.8483V22.5896H11.2074C10.2513 20.9943 9.68241 19.046 9.68241 16.9424C9.68241 15.4318 9.98499 14.02 10.4933 12.7353Z" />
    <path
        d="M18.3862 17.4571C18.5454 17.546 18.7047 17.6346 18.8641 17.7229C20.0103 18.3649 20.0103 18.3649 20.1671 18.5557C20.1723 18.9186 20.1725 19.2817 20.1671 19.6446C20.2359 19.6069 20.3048 19.5692 20.3757 19.5304C20.6914 19.3589 21.0082 19.1906 21.325 19.0224C21.4333 18.963 21.5416 18.9037 21.6532 18.8425C22.2976 18.5033 22.7859 18.3092 23.4893 18.4001C23.6171 18.5557 23.6171 18.5557 23.6874 19.0606C23.6171 19.6446 23.6171 19.6446 23.4356 19.8646C23.1702 20.0752 22.9006 20.2559 22.6188 20.4321C22.5197 20.4978 22.4207 20.5636 22.3186 20.6313C22.12 20.7628 21.9207 20.8926 21.7207 21.0208C21.4833 21.1751 21.2506 21.3401 21.0191 21.507C20.9013 21.5918 20.7835 21.6766 20.6622 21.764C20.5617 21.8366 20.4612 21.9092 20.3577 21.984C19.3354 22.4639 18.4848 21.8516 17.5396 21.3557C17.2578 21.2084 16.9755 21.0625 16.6926 20.9182C16.5064 20.8204 16.5064 20.8204 16.3165 20.7207C15.6724 20.4695 15.1828 20.5231 14.5848 20.889C14.2237 21.1077 14.0614 21.2001 13.6504 21.2001C13.6504 19.9168 13.6504 18.6335 13.6504 17.3113C15.567 16.3184 16.506 16.3731 18.3862 17.4571Z" />
    <path
        d="M17.0996 10.4668C17.7321 10.4668 18.3646 10.4668 19.0163 10.4668C19.2358 11.0013 19.1593 11.6155 19.1565 12.2034C19.1564 12.3446 19.1562 12.4857 19.156 12.6311C19.1553 13.0828 19.1537 13.5345 19.152 13.9862C19.1514 14.2921 19.1508 14.5979 19.1503 14.9038C19.1489 15.6544 19.1467 16.405 19.1441 17.1557C18.3632 17.0556 17.8888 16.7622 17.0996 16.3779C17.0996 14.4272 17.0996 12.4766 17.0996 10.4668Z" />
    <path
        d="M19.783 12.334C20.4155 12.334 21.048 12.334 21.6997 12.334C21.899 12.8192 21.843 13.3341 21.84 13.8664C21.8398 13.9869 21.8396 14.1073 21.8394 14.2313C21.8387 14.6165 21.8371 15.0016 21.8355 15.3868C21.8348 15.6476 21.8343 15.9085 21.8337 16.1694C21.8323 16.8095 21.8301 17.4495 21.8275 18.0895C21.34 18.4181 21.0956 18.4312 20.5497 18.2451C20.1461 18.0016 20.1461 18.0016 19.783 17.6229C19.7125 17.1722 19.6924 16.853 19.7082 16.4052C19.7093 16.2887 19.7103 16.1721 19.7115 16.0521C19.7157 15.681 19.7254 15.3105 19.7351 14.9395C19.739 14.6876 19.7425 14.4356 19.7456 14.1836C19.7534 13.5667 19.7684 12.9509 19.783 12.334Z" />
    <path
        d="M14.417 12.334C15.0495 12.334 15.682 12.334 16.3337 12.334C16.4904 12.7155 16.476 12.9641 16.4739 13.3901C16.4735 13.5364 16.4731 13.6828 16.4727 13.8336C16.4716 13.9868 16.4705 14.14 16.4694 14.2979C16.4688 14.4523 16.4683 14.6067 16.4677 14.7658C16.4662 15.1478 16.4641 15.5298 16.4614 15.9118C16.3376 15.9053 16.2137 15.8989 16.0861 15.8923C15.4552 15.8963 15.4552 15.8963 14.417 16.2229C14.417 14.9395 14.417 13.6562 14.417 12.334Z" />
</svg>