<svg width="24" height="24" viewBox="0 0 24 24" xmlns="http://www.w3.org/2000/svg">
    <path
        d="M9.29502 11.2944C11.8618 11.2944 13.9426 8.76603 13.9426 5.64718C13.9426 2.52833 11.8618 0 9.29502 0C6.72824 0 4.64746 2.52833 4.64746 5.64718C4.64746 8.76603 6.72824 11.2944 9.29502 11.2944Z"
/>
    <path
        d="M10.0736 12.7353C9.81796 12.7211 9.56235 12.707 9.29511 12.707C6.48334 12.707 3.85747 13.6529 1.61503 15.2765C0.592564 16.0106 0 17.3942 0 18.8483V22.5896H10.7591C9.8412 20.9943 9.29511 19.046 9.29511 16.9424C9.29511 15.4318 9.58559 14.02 10.0736 12.7353Z"
/>
    <path
        d="M22.6164 21.9408L19.9877 19.2032C20.7496 18.2504 21.1295 17.0283 21.0484 15.7911C20.9673 14.5539 20.4315 13.3969 19.5523 12.5608C18.6732 11.7247 17.5184 11.2739 16.3283 11.302C15.1381 11.3302 14.0043 11.8352 13.1625 12.7121C12.3207 13.5889 11.8359 14.7701 11.8088 16.0098C11.7818 17.2495 12.2146 18.4524 13.0173 19.3682C13.8199 20.284 14.9306 20.8422 16.1183 20.9266C17.306 21.0111 18.4792 20.6153 19.3939 19.8217L22.0221 22.5599C22.0611 22.6005 22.1074 22.6328 22.1584 22.6548C22.2094 22.6768 22.264 22.6881 22.3192 22.6881C22.3744 22.6881 22.4291 22.6768 22.48 22.6548C22.531 22.6328 22.5773 22.6005 22.6164 22.5599C22.6554 22.5193 22.6863 22.471 22.7075 22.4179C22.7286 22.3648 22.7395 22.3079 22.7395 22.2504C22.7395 22.1929 22.7286 22.136 22.7075 22.0829C22.6863 22.0297 22.6554 21.9815 22.6164 21.9408ZM12.6592 16.1254C12.6592 15.3466 12.8809 14.5853 13.2963 13.9378C13.7116 13.2903 14.302 12.7856 14.9927 12.4876C15.6834 12.1896 16.4434 12.1116 17.1767 12.2635C17.9099 12.4155 18.5834 12.7905 19.1121 13.3411C19.6407 13.8918 20.0007 14.5934 20.1466 15.3572C20.2924 16.121 20.2176 16.9127 19.9315 17.6322C19.6454 18.3517 19.1609 18.9666 18.5393 19.3993C17.9177 19.8319 17.1868 20.0629 16.4392 20.0629C15.437 20.0617 14.4762 19.6465 13.7676 18.9083C13.0589 18.1701 12.6603 17.1693 12.6592 16.1254Z"
/>
</svg>