<svg width="24" height="24" viewBox="0 0 24 24" xmlns="http://www.w3.org/2000/svg">
    <path
        d="M15.75 10.4998C15.75 11.5381 15.4421 12.5532 14.8652 13.4165C14.2884 14.2799 13.4684 14.9528 12.5091 15.3501C11.5498 15.7475 10.4942 15.8515 9.47581 15.6489C8.45741 15.4463 7.52194 14.9463 6.78772 14.2121C6.05349 13.4779 5.55348 12.5424 5.35091 11.524C5.14833 10.5056 5.2523 9.45 5.64966 8.49068C6.04702 7.53137 6.71993 6.71143 7.58329 6.13456C8.44664 5.55768 9.46168 5.24977 10.5 5.24977C11.8924 5.24977 13.2278 5.8029 14.2123 6.78746C15.1969 7.77203 15.75 9.10739 15.75 10.4998ZM21.5307 21.5304C21.461 21.6001 21.3783 21.6554 21.2872 21.6932C21.1962 21.7309 21.0986 21.7504 21 21.7504C20.9015 21.7504 20.8039 21.7309 20.7128 21.6932C20.6218 21.6554 20.5391 21.6001 20.4694 21.5304L15.7763 16.8363C14.1442 18.1941 12.0515 18.8705 9.93346 18.7247C7.81543 18.5789 5.83514 17.6222 4.40449 16.0536C2.97384 14.485 2.20297 12.4252 2.25222 10.3027C2.30148 8.18027 3.16707 6.15849 4.66895 4.65793C6.17083 3.15738 8.19337 2.29358 10.3159 2.2462C12.4384 2.19882 14.4975 2.97151 16.0648 4.40354C17.6322 5.83558 18.5871 7.81672 18.731 9.93488C18.8749 12.053 18.1968 14.1451 16.8375 15.776L21.5307 20.4691C21.6004 20.5388 21.6557 20.6215 21.6934 20.7126C21.7312 20.8036 21.7506 20.9012 21.7506 20.9998C21.7506 21.0983 21.7312 21.1959 21.6934 21.287C21.6557 21.378 21.6004 21.4607 21.5307 21.5304ZM10.5 17.2498C11.8351 17.2498 13.1401 16.8539 14.2501 16.1122C15.3602 15.3705 16.2253 14.3163 16.7362 13.0829C17.2471 11.8495 17.3808 10.4923 17.1203 9.18291C16.8599 7.87354 16.217 6.67081 15.273 5.7268C14.329 4.7828 13.1263 4.13992 11.8169 3.87947C10.5075 3.61902 9.15032 3.75269 7.91692 4.26359C6.68351 4.77448 5.62931 5.63964 4.88761 6.74967C4.14591 7.8597 3.75003 9.16475 3.75003 10.4998C3.75201 12.2894 4.46381 14.0051 5.72925 15.2706C6.99469 16.536 8.71043 17.2478 10.5 17.2498Z"
/>
</svg>