<svg width="28" height="29" viewBox="0 0 28 29" xmlns="http://www.w3.org/2000/svg">
    <g filter="url(#filter0_d_2532_1110)">
        <path
            d="M22.25 3.75H5.75C5.35218 3.75 4.97064 3.90804 4.68934 4.18934C4.40804 4.47064 4.25 4.85218 4.25 5.25V20.25C4.25007 20.3778 4.28281 20.5035 4.34511 20.6151C4.40741 20.7268 4.49721 20.8206 4.60597 20.8878C4.71474 20.9549 4.83887 20.9932 4.96657 20.9989C5.09427 21.0046 5.22131 20.9775 5.33563 20.9203L8 19.5881L10.6644 20.9203C10.7686 20.9725 10.8835 20.9996 11 20.9996C11.1165 20.9996 11.2314 20.9725 11.3356 20.9203L14 19.5881L16.6644 20.9203C16.7686 20.9725 16.8835 20.9996 17 20.9996C17.1165 20.9996 17.2314 20.9725 17.3356 20.9203L20 19.5881L22.6644 20.9203C22.7787 20.9775 22.9057 21.0046 23.0334 20.9989C23.1611 20.9932 23.2853 20.9549 23.394 20.8878C23.5028 20.8206 23.5926 20.7268 23.6549 20.6151C23.7172 20.5035 23.7499 20.3778 23.75 20.25V5.25C23.75 4.85218 23.592 4.47064 23.3107 4.18934C23.0294 3.90804 22.6478 3.75 22.25 3.75ZM12.875 15C12.875 15.0995 12.8355 15.1948 12.7652 15.2652C12.6948 15.3355 12.5995 15.375 12.5 15.375H8C7.90054 15.375 7.80516 15.3355 7.73484 15.2652C7.66451 15.1948 7.625 15.0995 7.625 15V9C7.625 8.90054 7.66451 8.80516 7.73484 8.73483C7.80516 8.66451 7.90054 8.625 8 8.625H12.5C12.5995 8.625 12.6948 8.66451 12.7652 8.73483C12.8355 8.80516 12.875 8.90054 12.875 9V15ZM20 14.25H15.5C15.3011 14.25 15.1103 14.171 14.9697 14.0303C14.829 13.8897 14.75 13.6989 14.75 13.5C14.75 13.3011 14.829 13.1103 14.9697 12.9697C15.1103 12.829 15.3011 12.75 15.5 12.75H20C20.1989 12.75 20.3897 12.829 20.5303 12.9697C20.671 13.1103 20.75 13.3011 20.75 13.5C20.75 13.6989 20.671 13.8897 20.5303 14.0303C20.3897 14.171 20.1989 14.25 20 14.25ZM20 11.25H15.5C15.3011 11.25 15.1103 11.171 14.9697 11.0303C14.829 10.8897 14.75 10.6989 14.75 10.5C14.75 10.3011 14.829 10.1103 14.9697 9.96967C15.1103 9.82902 15.3011 9.75 15.5 9.75H20C20.1989 9.75 20.3897 9.82902 20.5303 9.96967C20.671 10.1103 20.75 10.3011 20.75 10.5C20.75 10.6989 20.671 10.8897 20.5303 11.0303C20.3897 11.171 20.1989 11.25 20 11.25Z" />
    </g>
    <defs>
        <filter id="filter0_d_2532_1110" x="-2" y="0" width="32" height="32" filterUnits="userSpaceOnUse"
            color-interpolation-filters="sRGB">
            <feFlood flood-opacity="0" result="BackgroundImageFix" />
            <feColorMatrix in="SourceAlpha" type="matrix" values="0 0 0 0 0 0 0 0 0 0 0 0 0 0 0 0 0 0 127 0"
                result="hardAlpha" />
            <feOffset dy="4" />
            <feGaussianBlur stdDeviation="2" />
            <feComposite in2="hardAlpha" operator="out" />
            <feColorMatrix type="matrix" values="0 0 0 0 0 0 0 0 0 0 0 0 0 0 0 0 0 0 0.25 0" />
            <feBlend mode="normal" in2="BackgroundImageFix" result="effect1_dropShadow_2532_1110" />
            <feBlend mode="normal" in="SourceGraphic" in2="effect1_dropShadow_2532_1110" result="shape" />
        </filter>
    </defs>
</svg>