<svg width="24" height="24" viewBox="0 0 24 24" xmlns="http://www.w3.org/2000/svg">
    <path
        d="M11.066 11.2944C14.1217 11.2944 16.5988 8.76603 16.5988 5.64718C16.5988 2.52833 14.1217 0 11.066 0C8.01032 0 5.5332 2.52833 5.5332 5.64718C5.5332 8.76603 8.01032 11.2944 11.066 11.2944Z" />
    <path
        d="M11.9924 12.7353C11.6881 12.7211 11.3837 12.707 11.0656 12.707C7.71826 12.707 4.59223 13.6529 1.92265 15.2765C0.705433 16.0106 0 17.3942 0 18.8483V22.5896H12.8084C11.7157 20.9943 11.0656 19.046 11.0656 16.9424C11.0656 15.4318 11.4114 14.02 11.9924 12.7353Z" />
    <path
        d="M16.6622 19.3333C16.6622 18.5458 16.7285 17.9796 16.861 17.6347C16.9935 17.2897 17.2741 16.9129 17.7027 16.5042C18.0769 16.1542 18.3622 15.8504 18.5586 15.593C18.755 15.3356 18.853 15.0414 18.8527 14.7104C18.8527 14.3118 18.7273 13.9813 18.4765 13.7188C18.2256 13.4563 17.8764 13.325 17.4289 13.325C16.9634 13.325 16.6098 13.4757 16.3681 13.7771C16.1264 14.0785 15.9552 14.3847 15.8545 14.6958L14.4443 14.0542C14.636 13.4319 14.9874 12.8924 15.4985 12.4354C16.0096 11.9785 16.6531 11.75 17.4289 11.75C18.3872 11.75 19.1243 12.0345 19.6401 12.6034C20.156 13.1724 20.4137 13.8553 20.4134 14.6521C20.4134 15.1382 20.3154 15.5539 20.1193 15.8993C19.9233 16.2446 19.6151 16.6358 19.1949 17.0729C18.7477 17.5299 18.4763 17.8775 18.3806 18.1159C18.285 18.3543 18.237 18.7601 18.2366 19.3333H16.6622ZM17.4289 22.8333C17.1277 22.8333 16.8699 22.7192 16.6556 22.4909C16.4413 22.2626 16.334 21.9879 16.3336 21.6667C16.3333 21.3454 16.4406 21.0709 16.6556 20.843C16.8707 20.6151 17.1284 20.5008 17.4289 20.5C17.7293 20.4992 17.9872 20.6136 18.2026 20.843C18.418 21.0724 18.5252 21.347 18.5241 21.6667C18.523 21.9863 18.4159 22.2611 18.2026 22.4909C17.9894 22.7208 17.7315 22.8349 17.4289 22.8333Z" />
</svg>