<svg width="24" height="24" viewBox="0 0 24 24" xmlns="http://www.w3.org/2000/svg">
    <path
        d="M9.54849 17.9201C9.12568 18.8444 7.71474 21.0007 3.75005 21.0007C3.55114 21.0007 3.36037 20.9217 3.21972 20.781C3.07907 20.6404 3.00005 20.4496 3.00005 20.2507C3.00005 16.286 5.1563 14.8751 6.08068 14.4523C6.1703 14.4114 6.26711 14.3886 6.36555 14.3851C6.464 14.3816 6.56216 14.3976 6.65444 14.4321C6.74672 14.4665 6.8313 14.5189 6.90336 14.586C6.97543 14.6532 7.03355 14.7339 7.07443 14.8235C7.1153 14.9131 7.13812 15.0099 7.14159 15.1084C7.14505 15.2068 7.12909 15.305 7.09461 15.3973C7.06014 15.4896 7.00783 15.5741 6.94067 15.6462C6.8735 15.7183 6.7928 15.7764 6.70318 15.8173C6.10036 16.0919 4.77005 16.976 4.53568 19.4651C7.02474 19.2307 7.91068 17.9004 8.18349 17.2976C8.22436 17.2079 8.28249 17.1272 8.35455 17.0601C8.42661 16.9929 8.5112 16.9406 8.60348 16.9061C8.69576 16.8717 8.79392 16.8557 8.89237 16.8592C8.99081 16.8626 9.08761 16.8854 9.17724 16.9263C9.26687 16.9672 9.34757 17.0253 9.41473 17.0974C9.48189 17.1694 9.5342 17.254 9.56868 17.3463C9.60315 17.4386 9.61911 17.5368 9.61565 17.6352C9.61218 17.7336 9.58936 17.8304 9.54849 17.9201ZM20.986 4.42007C20.9638 4.05438 20.8085 3.70946 20.5494 3.4504C20.2904 3.19134 19.9454 3.03605 19.5797 3.01382C18.4004 2.94351 15.3863 3.05132 12.886 5.55164L8.25005 10.1913C8.18043 10.2611 8.09775 10.3164 8.00674 10.3542C7.91573 10.392 7.81817 10.4115 7.71962 10.4116C7.5206 10.4118 7.32966 10.3329 7.1888 10.1923C7.04795 10.0517 6.96872 9.86085 6.96854 9.66183C6.96837 9.46281 7.04726 9.27187 7.18786 9.13101L9.67787 6.64007C9.72999 6.58764 9.76546 6.52096 9.7798 6.44842C9.79414 6.37589 9.78671 6.30073 9.75846 6.2324C9.73021 6.16407 9.68238 6.10562 9.621 6.0644C9.55963 6.02317 9.48743 6.00101 9.41349 6.0007H6.97036C6.77278 5.99966 6.57695 6.03791 6.39428 6.11323C6.21161 6.18855 6.04573 6.29944 5.9063 6.43945L2.69068 9.65695C2.49347 9.85402 2.35509 10.1021 2.29107 10.3735C2.22704 10.6448 2.23991 10.9287 2.32821 11.1931C2.41652 11.4575 2.57678 11.6921 2.79101 11.8706C3.00523 12.049 3.26494 12.1642 3.54099 12.2032L7.14755 12.7066L11.2922 16.8513L11.7957 20.4598C11.8344 20.7358 11.9496 20.9956 12.1281 21.2096C12.3067 21.4236 12.5416 21.5835 12.8063 21.671C12.9605 21.7225 13.1219 21.7488 13.2844 21.7488C13.4812 21.7492 13.6761 21.7106 13.858 21.6353C14.0398 21.56 14.2049 21.4495 14.3438 21.3101L17.5613 18.0944C17.7009 17.9547 17.8115 17.7888 17.8868 17.6062C17.9621 17.4236 18.0006 17.2279 18.0001 17.0304V14.5873C17.9999 14.5131 17.9778 14.4407 17.9366 14.3791C17.8953 14.3175 17.8367 14.2696 17.7682 14.2413C17.6996 14.213 17.6243 14.2056 17.5516 14.2202C17.4789 14.2347 17.4121 14.2704 17.3597 14.3229L14.8688 16.8129C14.7959 16.8858 14.7088 16.9429 14.6129 16.9807C14.517 17.0185 14.4143 17.036 14.3113 17.0323C14.2083 17.0287 14.1072 17.0038 14.0142 16.9592C13.9212 16.9147 13.8384 16.8515 13.771 16.7735C13.648 16.6247 13.5854 16.435 13.5959 16.2422C13.6063 16.0494 13.6889 15.8676 13.8272 15.7329L18.4463 11.1138C20.9485 8.61257 21.0563 5.59851 20.986 4.4182V4.42007Z"
/>
</svg>