<svg width="24" height="24" viewBox="0 0 24 24" xmlns="http://www.w3.org/2000/svg">
    <path
        d="M9.683 11.2944C12.3567 11.2944 14.5242 8.76603 14.5242 5.64718C14.5242 2.52833 12.3567 0 9.683 0C7.00928 0 4.8418 2.52833 4.8418 5.64718C4.8418 8.76603 7.00928 11.2944 9.683 11.2944Z"
/>
    <path
        d="M10.4933 12.7353C10.227 12.7211 9.96078 12.707 9.68241 12.707C6.75348 12.707 4.0182 13.6529 1.68232 15.2765C0.617254 16.0106 0 17.3942 0 18.8483V22.5896H11.2074C10.2513 20.9943 9.68241 19.046 9.68241 16.9424C9.68241 15.4318 9.98499 14.02 10.4933 12.7353Z"
/>
    <path
        d="M20.6458 12.3327C20.5188 12.3327 20.3969 12.2712 20.307 12.1618C20.2172 12.0524 20.1667 11.9041 20.1667 11.7493C20.1667 11.5946 20.2172 11.4463 20.307 11.3369C20.3969 11.2275 20.5188 11.166 20.6458 11.166H22.5625C22.6896 11.166 22.8115 11.2275 22.9013 11.3369C22.9912 11.4463 23.0417 11.5946 23.0417 11.7493V14.0827C23.0417 14.2374 22.9912 14.3858 22.9013 14.4952C22.8115 14.6046 22.6896 14.666 22.5625 14.666C22.4354 14.666 22.3135 14.6046 22.2237 14.4952C22.1338 14.3858 22.0833 14.2374 22.0833 14.0827V13.1575L19.3075 16.5368C19.2177 16.6461 19.0958 16.7076 18.9688 16.7076C18.8417 16.7076 18.7198 16.6461 18.63 16.5368L17.2917 14.9075L14.7554 17.9951C14.6651 18.1014 14.544 18.1602 14.4184 18.1588C14.2928 18.1575 14.1726 18.0961 14.0837 17.988C13.9949 17.8798 13.9445 17.7335 13.9434 17.5806C13.9423 17.4276 13.9906 17.2803 14.0779 17.1703L16.9529 13.6703C17.0428 13.5609 17.1646 13.4995 17.2917 13.4995C17.4187 13.4995 17.5406 13.5609 17.6304 13.6703L18.9688 15.2995L21.4058 12.3327H20.6458ZM14.8958 20.4993V22.2493C14.8958 22.4041 14.8453 22.5524 14.7555 22.6618C14.6656 22.7712 14.5437 22.8327 14.4167 22.8327C14.2896 22.8327 14.1677 22.7712 14.0778 22.6618C13.988 22.5524 13.9375 22.4041 13.9375 22.2493V20.4993C13.9375 20.3446 13.988 20.1963 14.0778 20.0869C14.1677 19.9775 14.2896 19.916 14.4167 19.916C14.5437 19.916 14.6656 19.9775 14.7555 20.0869C14.8453 20.1963 14.8958 20.3446 14.8958 20.4993ZM17.2917 18.166C17.2917 18.0113 17.2412 17.8629 17.1513 17.7535C17.0615 17.6441 16.9396 17.5827 16.8125 17.5827C16.6854 17.5827 16.5635 17.6441 16.4737 17.7535C16.3838 17.8629 16.3333 18.0113 16.3333 18.166V22.2493C16.3333 22.4041 16.3838 22.5524 16.4737 22.6618C16.5635 22.7712 16.6854 22.8327 16.8125 22.8327C16.9396 22.8327 17.0615 22.7712 17.1513 22.6618C17.2412 22.5524 17.2917 22.4041 17.2917 22.2493V18.166ZM19.2083 18.7493C19.3354 18.7493 19.4573 18.8108 19.5472 18.9202C19.637 19.0296 19.6875 19.178 19.6875 19.3327V22.2493C19.6875 22.4041 19.637 22.5524 19.5472 22.6618C19.4573 22.7712 19.3354 22.8327 19.2083 22.8327C19.0813 22.8327 18.9594 22.7712 18.8695 22.6618C18.7797 22.5524 18.7292 22.4041 18.7292 22.2493V19.3327C18.7292 19.178 18.7797 19.0296 18.8695 18.9202C18.9594 18.8108 19.0813 18.7493 19.2083 18.7493ZM22.0833 16.416C22.0833 16.2613 22.0329 16.1129 21.943 16.0035C21.8531 15.8941 21.7312 15.8327 21.6042 15.8327C21.4771 15.8327 21.3552 15.8941 21.2653 16.0035C21.1755 16.1129 21.125 16.2613 21.125 16.416V22.2493C21.125 22.4041 21.1755 22.5524 21.2653 22.6618C21.3552 22.7712 21.4771 22.8327 21.6042 22.8327C21.7312 22.8327 21.8531 22.7712 21.943 22.6618C22.0329 22.5524 22.0833 22.4041 22.0833 22.2493V16.416Z"
/>
</svg>