<svg width="24" height="24" viewBox="0 0 24 24" xmlns="http://www.w3.org/2000/svg">
    <path
        d="M9.88855 11.2944C12.6192 11.2944 14.8328 8.76603 14.8328 5.64718C14.8328 2.52833 12.6192 0 9.88855 0C7.15793 0 4.94434 2.52833 4.94434 5.64718C4.94434 8.76603 7.15793 11.2944 9.88855 11.2944Z" />
    <path
        d="M10.7166 12.7353C10.4446 12.7211 10.1727 12.707 9.88842 12.707C6.89717 12.707 4.10369 13.6529 1.71811 15.2765C0.630387 16.0106 0 17.3942 0 18.8483V22.5896H11.4458C10.4694 20.9943 9.88842 19.046 9.88842 16.9424C9.88842 15.4318 10.1974 14.02 10.7166 12.7353Z" />
    <path
        d="M19.5323 22.6869C19.5323 22.803 19.4853 22.9143 19.4015 22.9963C19.3177 23.0784 19.204 23.1244 19.0855 23.1244H14.6174C14.4989 23.1244 14.3853 23.0784 14.3015 22.9963C14.2177 22.9143 14.1706 22.803 14.1706 22.6869C14.1706 22.5709 14.2177 22.4596 14.3015 22.3776C14.3853 22.2955 14.4989 22.2494 14.6174 22.2494H19.0855C19.204 22.2494 19.3177 22.2955 19.4015 22.3776C19.4853 22.4596 19.5323 22.5709 19.5323 22.6869ZM21.7664 15.6869C21.7683 16.4163 21.6 17.1364 21.2744 17.7924C20.9488 18.4483 20.4745 19.0228 19.8876 19.4719C19.7778 19.5542 19.6888 19.6601 19.6272 19.7813C19.5656 19.9025 19.5332 20.0359 19.5323 20.1713V20.4994C19.5323 20.7315 19.4382 20.9541 19.2706 21.1182C19.103 21.2823 18.8757 21.3744 18.6387 21.3744H15.0643C14.8273 21.3744 14.6 21.2823 14.4324 21.1182C14.2648 20.9541 14.1706 20.7315 14.1706 20.4994V20.1713C14.1705 20.0376 14.1391 19.9056 14.0788 19.7856C14.0185 19.6655 13.9309 19.5607 13.8227 19.479C13.2373 19.0325 12.7632 18.4615 12.4365 17.8092C12.1097 17.1569 11.9388 16.4403 11.9366 15.7137C11.9221 13.1073 14.0735 10.9368 16.7331 10.8744C17.3884 10.859 18.0403 10.972 18.6503 11.207C19.2604 11.4419 19.8162 11.7939 20.2852 12.2423C20.7542 12.6908 21.1269 13.2265 21.3813 13.8181C21.6356 14.4097 21.7666 15.0451 21.7664 15.6869ZM20.8728 15.6869C20.8729 15.1618 20.7658 14.6418 20.5576 14.1578C20.3495 13.6738 20.0446 13.2354 19.6608 12.8685C19.277 12.5016 18.8222 12.2136 18.323 12.0214C17.8239 11.8292 17.2905 11.7368 16.7543 11.7494C14.5761 11.7998 12.8185 13.5755 12.8302 15.7083C12.8323 16.3025 12.9723 16.8885 13.2397 17.4219C13.5072 17.9553 13.895 18.4222 14.3739 18.7872C14.5892 18.951 14.7633 19.161 14.883 19.4009C15.0026 19.6408 15.0646 19.9043 15.0643 20.1713V20.4994H18.6387V20.1713C18.6393 19.9036 18.7024 19.6395 18.8231 19.3992C18.9438 19.159 19.119 18.9489 19.3352 18.785C19.8156 18.4174 20.2038 17.9472 20.4703 17.4103C20.7368 16.8733 20.8744 16.2839 20.8728 15.6869ZM19.973 15.1762C19.8571 14.5425 19.5458 13.9588 19.0809 13.5037C18.6159 13.0485 18.0198 12.7438 17.3726 12.6305C17.3147 12.6209 17.2555 12.6226 17.1983 12.6355C17.1411 12.6483 17.087 12.6721 17.0392 12.7054C16.9914 12.7387 16.9508 12.7809 16.9196 12.8296C16.8884 12.8783 16.8674 12.9325 16.8576 12.9892C16.8479 13.0459 16.8496 13.1039 16.8628 13.1599C16.8759 13.2159 16.9002 13.2688 16.9342 13.3156C16.9682 13.3624 17.0113 13.4022 17.061 13.4327C17.1108 13.4633 17.1661 13.4839 17.224 13.4934C18.1495 13.646 18.9347 14.4149 19.0917 15.3227C19.1094 15.4246 19.1633 15.5171 19.244 15.5838C19.3246 15.6504 19.4268 15.687 19.5323 15.6869C19.5576 15.6868 19.5828 15.6848 19.6077 15.6809C19.7245 15.6614 19.8286 15.5973 19.8971 15.5026C19.9656 15.4079 19.9929 15.2905 19.973 15.1762Z" />
</svg>