<svg width="24" height="24" viewBox="0 0 24 24" xmlns="http://www.w3.org/2000/svg">
    <path fill-rule="evenodd" clip-rule="evenodd"
        d="M9.42899 5.32059H14.5718L15.5336 2.43373C15.6194 2.17616 15.6427 1.90189 15.6018 1.63351C15.5609 1.36512 15.4568 1.1103 15.2981 0.89002C15.1394 0.669737 14.9307 0.490292 14.6891 0.366458C14.4475 0.242623 14.1799 0.17794 13.9084 0.177734H10.0924C9.82108 0.178212 9.55372 0.243093 9.31235 0.367042C9.07097 0.490992 8.86246 0.670469 8.70397 0.890714C8.54548 1.11096 8.44154 1.36568 8.40069 1.63393C8.35984 1.90218 8.38325 2.1763 8.46899 2.43373L9.42899 5.32059ZM16.2296 19.472L14.5718 7.03488H9.42899L7.77128 19.472C7.75376 19.6027 7.76661 19.7356 7.80883 19.8605C7.85104 19.9854 7.9215 20.0988 8.01471 20.192L11.3936 23.5709C11.4732 23.6507 11.5678 23.714 11.6719 23.7572C11.776 23.8005 11.8877 23.8227 12.0004 23.8227C12.1132 23.8227 12.2248 23.8005 12.3289 23.7572C12.4331 23.714 12.5277 23.6507 12.6073 23.5709L15.9861 20.1903C16.0793 20.0971 16.1498 19.9836 16.192 19.8588C16.2342 19.7339 16.2471 19.601 16.2296 19.4703V19.472Z"
/>
</svg>