<svg width="24" height="24" viewBox="0 0 24 24" xmlns="http://www.w3.org/2000/svg">
    <path
        d="M21 4.50013V9.00013C21 9.19904 20.921 9.38981 20.7803 9.53046C20.6397 9.67111 20.4489 9.75013 20.25 9.75013H15.75C15.6016 9.75024 15.4565 9.70632 15.333 9.62392C15.2096 9.54151 15.1133 9.42434 15.0565 9.28722C14.9997 9.1501 14.9849 8.99921 15.0139 8.85365C15.0428 8.70808 15.1144 8.57439 15.2194 8.4695L16.9359 6.75013C15.5551 5.42707 13.7183 4.6856 11.8059 4.67919H11.7638C9.80414 4.67535 7.92181 5.44323 6.52406 6.81669C6.38083 6.9504 6.19096 7.02274 5.99507 7.01825C5.79918 7.01376 5.61283 6.93278 5.47588 6.79265C5.33893 6.65251 5.26226 6.46435 5.26227 6.26841C5.26228 6.07247 5.33897 5.88431 5.47594 5.74419C7.14785 4.11067 9.38972 3.1917 11.7271 3.18172C14.0646 3.17175 16.3142 4.07156 18 5.69075L19.7213 3.9695C19.8262 3.86514 19.9598 3.79417 20.105 3.76556C20.2503 3.73694 20.4007 3.75194 20.5375 3.80868C20.6742 3.86542 20.7911 3.96135 20.8734 4.08439C20.9557 4.20744 20.9997 4.35209 21 4.50013ZM17.4759 17.1836C16.0867 18.5404 14.2253 19.3056 12.2834 19.318C10.3415 19.3304 8.47053 18.5891 7.06406 17.2501L8.78063 15.5336C8.88661 15.4288 8.95899 15.2949 8.98853 15.1488C9.01808 15.0028 9.00346 14.8513 8.94653 14.7136C8.8896 14.5759 8.79294 14.4582 8.66889 14.3757C8.54483 14.2932 8.399 14.2494 8.25 14.2501H3.75C3.55109 14.2501 3.36032 14.3291 3.21967 14.4698C3.07902 14.6104 3 14.8012 3 15.0001V19.5001C2.99988 19.6486 3.04381 19.7937 3.12621 19.9171C3.20861 20.0406 3.32579 20.1368 3.46291 20.1936C3.60002 20.2504 3.75092 20.2653 3.89648 20.2363C4.04204 20.2073 4.17573 20.1358 4.28063 20.0308L6 18.3095C7.66144 19.913 9.87852 20.8119 12.1875 20.8183H12.2372C14.5885 20.8243 16.8476 19.9038 18.525 18.2561C18.662 18.1159 18.7387 17.9278 18.7387 17.7318C18.7387 17.5359 18.662 17.3477 18.5251 17.2076C18.3881 17.0675 18.2018 16.9865 18.0059 16.982C17.81 16.9775 17.6201 17.0499 17.4769 17.1836H17.4759Z" />
</svg>