<?xml version="1.0" standalone="no"?>
<!DOCTYPE svg PUBLIC "-//W3C//DTD SVG 20010904//EN"
 "http://www.w3.org/TR/2001/REC-SVG-20010904/DTD/svg10.dtd">
<svg version="1.0" xmlns="http://www.w3.org/2000/svg"
 width="616.000000pt" height="616.000000pt" viewBox="0 0 616.000000 616.000000"
 preserveAspectRatio="xMidYMid meet">
<metadata>
Created by potrace 1.14, written by Peter Selinger 2001-2017
</metadata>
<g transform="translate(0.000000,616.000000) scale(0.100000,-0.100000)"
fill="#000000" stroke="none">
<path d="M2985 5753 c3 -7 4 -13 1 -13 -2 0 -13 -3 -23 -6 -15 -5 -16 -4 -3 6
13 10 12 11 -5 5 -11 -4 -28 -7 -38 -7 -9 0 -15 -3 -12 -8 4 -6 -2 -7 -11 -3
-14 5 -16 3 -11 -13 7 -19 7 -19 -8 0 -13 17 -15 18 -15 3 0 -9 -11 -19 -25
-23 -23 -6 -30 -16 -25 -39 1 -5 -7 -1 -18 8 -15 14 -22 15 -28 6 -5 -8 -3
-10 6 -4 9 6 11 4 5 -4 -4 -7 -15 -11 -25 -8 -14 4 -17 0 -15 -14 3 -16 1 -17
-15 -9 -16 8 -18 7 -15 -10 2 -11 -1 -23 -7 -26 -7 -5 -8 -2 -3 6 5 8 3 11 -6
8 -8 -3 -13 -12 -13 -20 1 -10 -5 -14 -17 -11 -15 4 -18 1 -13 -11 5 -12 2
-15 -12 -9 -12 4 -15 3 -10 -5 4 -7 2 -12 -4 -12 -6 0 -8 -5 -4 -12 5 -9 2 -9
-9 1 -15 12 -17 11 -17 -2 0 -9 -9 -22 -20 -30 -11 -8 -17 -17 -12 -22 4 -5 1
-5 -6 -1 -9 5 -15 1 -19 -13 -3 -11 -9 -18 -14 -15 -5 3 -9 0 -9 -6 0 -6 -4
-9 -9 -5 -6 3 -8 -6 -5 -22 5 -27 5 -27 -11 -8 -9 11 -14 14 -10 8 3 -7 1 -13
-4 -13 -6 0 -11 -7 -11 -15 0 -8 -5 -15 -11 -15 -6 0 -9 -7 -6 -15 4 -8 1 -17
-5 -21 -7 -5 -8 -2 -3 6 5 8 3 11 -6 8 -8 -3 -15 -10 -15 -16 -1 -7 -2 -17 -3
-23 -1 -8 -5 -8 -15 0 -12 10 -13 8 -9 -9 4 -14 1 -20 -8 -18 -8 2 -13 -3 -11
-9 1 -7 -5 -13 -13 -13 -9 0 -12 -6 -9 -15 6 -14 -12 -21 -39 -16 -5 1 -6 -3
-2 -9 3 -6 12 -7 18 -3 8 5 8 2 0 -9 -7 -8 -10 -17 -8 -20 3 -3 -6 -4 -20 -3
-14 2 -25 -1 -25 -6 0 -5 5 -9 10 -9 6 0 10 -5 10 -11 0 -6 -8 -9 -18 -7 -13
4 -18 -1 -19 -16 -1 -12 -19 -36 -40 -54 -29 -25 -32 -31 -13 -22 23 10 24 10
6 -4 -10 -9 -23 -13 -28 -10 -5 3 -12 -3 -15 -15 -3 -12 -10 -21 -15 -21 -5 0
-6 -5 -2 -12 5 -8 2 -9 -11 -4 -15 5 -16 4 -5 -9 7 -9 9 -15 4 -14 -23 4 -33
-3 -29 -21 2 -12 0 -18 -6 -14 -19 11 -51 -28 -44 -56 3 -14 2 -20 -2 -15 -11
13 -36 18 -28 5 3 -5 2 -10 -4 -10 -6 0 -7 -7 -4 -17 4 -10 2 -14 -4 -10 -6 4
-17 -1 -24 -10 -10 -11 -10 -14 -2 -9 9 5 11 2 7 -8 -3 -9 -10 -13 -15 -10 -5
3 -10 0 -10 -5 -1 -6 -2 -15 -3 -20 0 -5 -5 -13 -10 -18 -5 -5 -6 -3 -2 5 4 6
2 12 -3 12 -10 0 -16 -22 -12 -43 1 -5 -3 -6 -9 -2 -5 3 -10 1 -10 -6 0 -7 -3
-9 -6 -6 -4 4 -3 12 2 20 5 7 0 3 -11 -9 -11 -12 -27 -24 -35 -28 -8 -3 -5 -4
7 -2 13 2 26 0 29 -5 3 -5 2 -9 -3 -8 -20 3 -34 -2 -28 -11 3 -5 1 -10 -5 -10
-6 0 -18 -6 -26 -14 -11 -11 -11 -16 -1 -19 7 -3 4 -6 -6 -6 -11 -1 -15 -6
-11 -13 5 -7 3 -8 -6 -3 -10 6 -12 4 -6 -10 5 -14 4 -16 -7 -7 -20 17 -28 3
-15 -22 10 -18 9 -19 -4 -8 -13 10 -18 9 -29 -5 -9 -11 -10 -14 -1 -9 6 4 12
2 12 -3 0 -6 -8 -11 -19 -11 -27 0 -44 -23 -28 -39 9 -10 8 -11 -6 -5 -13 5
-18 3 -15 -7 4 -21 -35 -66 -52 -61 -13 4 -13 3 -2 -10 15 -19 0 -34 -20 -22
-8 5 -7 0 2 -11 12 -15 12 -17 1 -10 -11 6 -13 4 -7 -11 6 -15 5 -17 -5 -6 -7
6 -17 12 -22 12 -5 0 -1 -7 8 -16 14 -15 14 -17 -1 -29 -9 -6 -14 -17 -10 -23
4 -7 3 -12 -2 -12 -6 0 -8 -9 -5 -20 3 -11 10 -17 17 -13 6 3 7 2 3 -3 -5 -5
-14 -9 -19 -9 -6 0 -13 -6 -16 -14 -3 -8 0 -11 7 -7 15 10 14 -7 -1 -23 -11
-11 -10 -14 0 -18 10 -4 10 -8 0 -21 -11 -13 -11 -15 3 -10 12 5 14 0 11 -23
-3 -17 0 -29 7 -29 6 0 11 -9 11 -21 0 -13 4 -18 13 -13 7 5 6 0 -3 -11 -9
-11 -10 -16 -2 -11 7 4 12 1 12 -8 0 -9 5 -16 11 -16 5 0 7 4 4 10 -3 6 1 7
10 4 14 -6 14 -8 -2 -21 -10 -8 -13 -12 -7 -9 7 3 18 -2 25 -11 12 -14 12 -16
-1 -8 -13 8 -13 7 0 -9 16 -21 23 -49 9 -40 -5 3 -12 -2 -15 -10 -3 -9 -11
-16 -17 -16 -6 0 0 11 13 25 13 14 19 25 14 25 -10 0 -61 -71 -56 -78 2 -3 -3
-9 -12 -14 -9 -5 -16 -14 -16 -21 0 -7 4 -6 10 3 7 10 10 11 10 2 0 -7 -7 -15
-15 -18 -8 -4 -12 -11 -8 -18 5 -7 2 -7 -8 1 -13 10 -15 8 -13 -18 2 -24 -1
-28 -11 -19 -10 8 -15 6 -20 -9 -3 -12 -3 -26 1 -32 4 -7 -2 -6 -17 2 -22 11
-23 11 -10 -5 8 -9 10 -16 5 -15 -21 4 -28 -2 -14 -12 12 -9 11 -10 -8 -6 -12
3 -20 1 -16 -4 3 -5 0 -9 -6 -9 -6 0 -8 -5 -5 -11 4 -6 0 -9 -11 -7 -11 2 -19
-3 -19 -12 -1 -8 -7 -14 -14 -12 -8 2 -11 -3 -8 -11 4 -11 0 -13 -14 -10 -15
4 -18 2 -12 -13 6 -17 5 -18 -13 -4 -10 8 -16 10 -12 6 4 -5 0 -15 -10 -23 -9
-8 -11 -11 -3 -7 9 5 12 3 7 -5 -4 -6 -12 -9 -17 -6 -8 6 -13 -8 -10 -27 0 -5
-4 -8 -10 -8 -6 0 -8 9 -4 21 6 19 5 20 -8 8 -8 -8 -13 -17 -11 -20 2 -4 -4
-10 -13 -13 -15 -6 -15 -8 -3 -17 11 -8 9 -9 -9 -4 -15 5 -21 3 -17 -3 3 -6
-3 -13 -14 -17 -11 -3 -21 -11 -21 -16 -3 -19 -5 -24 -13 -37 -6 -11 -11 -11
-24 0 -13 11 -14 11 -8 0 9 -15 -23 -44 -38 -35 -5 4 -6 1 -2 -6 4 -6 13 -8
19 -4 7 4 6 0 -2 -10 -7 -9 -18 -14 -25 -10 -6 4 -4 -2 4 -12 14 -17 14 -17
-6 -7 -18 10 -20 8 -18 -18 1 -20 -2 -27 -12 -23 -9 3 -12 -2 -9 -16 2 -11 -1
-24 -7 -27 -7 -4 -8 -2 -4 4 12 20 -10 13 -30 -9 -16 -17 -16 -22 -4 -29 11
-7 12 -10 2 -10 -8 0 -10 -5 -6 -12 5 -8 0 -7 -11 2 -17 14 -18 14 -5 -10 13
-24 12 -24 -5 -10 -10 8 -16 10 -12 3 4 -6 1 -14 -5 -16 -10 -4 -10 -6 0 -6 6
-1 12 -6 12 -12 0 -6 -7 -9 -15 -5 -13 4 -13 2 -5 -14 12 -23 13 -41 1 -22 -7
11 -9 11 -14 -2 -4 -9 -2 -16 4 -16 6 0 7 -5 4 -10 -4 -6 -10 -8 -15 -5 -5 3
-12 0 -16 -6 -4 -7 -3 -9 3 -6 6 4 13 -2 16 -14 4 -15 2 -18 -7 -10 -9 8 -13
7 -13 -4 0 -8 3 -15 7 -15 4 0 7 -7 7 -15 0 -11 -4 -12 -14 -3 -10 8 -12 8 -8
-3 3 -8 7 -29 9 -46 2 -25 -1 -33 -13 -34 -11 0 -9 -3 7 -9 12 -5 22 -12 22
-14 0 -3 -6 -3 -14 0 -8 3 -17 0 -22 -7 -4 -7 -3 -10 4 -5 12 7 12 -68 -1 -80
-4 -4 -7 -12 -7 -18 0 -6 5 -3 11 7 5 9 15 17 22 17 8 0 7 -3 -2 -9 -7 -5 -10
-14 -7 -20 4 -6 2 -11 -4 -11 -6 0 -8 -5 -5 -10 4 -6 12 -7 18 -4 7 4 8 3 4
-2 -5 -5 -13 -9 -18 -9 -15 0 -3 -44 15 -57 6 -4 0 -8 -14 -9 -23 0 -23 -1 -5
-9 11 -5 15 -9 9 -9 -13 -1 -6 -48 9 -58 5 -3 0 -14 -14 -25 -13 -11 -19 -17
-13 -14 7 3 15 -1 18 -10 4 -12 2 -15 -9 -10 -8 3 -15 3 -15 0 0 -2 10 -9 23
-14 18 -7 19 -9 3 -9 -17 -1 -17 -2 -2 -26 15 -22 15 -26 2 -31 -14 -5 -14
-10 -1 -42 13 -33 13 -35 0 -18 -8 11 -15 24 -15 30 0 5 -2 7 -5 4 -3 -3 2
-22 11 -44 15 -37 15 -38 -3 -24 -17 14 -17 13 1 -8 11 -13 14 -22 7 -22 -7 0
-5 -10 6 -28 17 -26 17 -27 -1 -12 -18 14 -19 14 -8 -6 6 -12 8 -24 5 -28 -3
-3 1 -6 10 -6 9 0 15 -8 14 -19 0 -11 -6 -17 -12 -15 -5 3 -3 -1 5 -8 19 -17
45 -62 31 -53 -6 3 -11 1 -11 -4 0 -6 6 -11 13 -11 8 0 7 -4 -3 -10 -10 -6
-11 -10 -2 -10 6 0 12 -6 12 -14 0 -8 9 -18 21 -21 19 -6 19 -8 3 -19 -16 -12
-15 -14 6 -29 14 -10 20 -22 16 -32 -3 -9 -2 -13 4 -10 6 3 10 1 10 -5 0 -6 5
-8 13 -4 9 6 9 4 -1 -8 -10 -13 -10 -18 -1 -24 8 -5 9 -3 4 6 -5 8 -4 11 3 6
6 -4 9 -13 6 -20 -3 -7 2 -16 11 -19 11 -5 14 -14 9 -32 -5 -21 -3 -25 16 -25
11 0 18 -4 15 -10 -3 -5 3 -17 14 -26 11 -10 17 -24 13 -32 -3 -9 -1 -13 5 -9
6 4 9 -3 8 -18 -2 -18 1 -22 13 -18 10 4 13 2 8 -5 -4 -7 1 -10 15 -7 17 4 19
2 9 -10 -10 -12 -9 -15 6 -15 16 0 17 -2 4 -11 -12 -9 -11 -10 8 -6 12 3 20 1
17 -3 -3 -5 5 -19 17 -31 13 -12 16 -18 8 -14 -8 5 2 -8 23 -28 22 -20 36 -40
33 -45 -3 -6 2 -9 12 -8 9 0 16 -5 15 -11 -2 -7 4 -13 13 -13 9 0 12 5 8 12
-4 7 -3 8 5 4 9 -6 9 -11 0 -22 -9 -11 -7 -14 10 -14 12 0 21 -6 21 -16 0 -8
4 -12 10 -9 5 3 10 1 10 -4 0 -6 5 -11 11 -11 5 0 7 4 4 10 -3 6 1 7 10 3 13
-5 14 -7 3 -14 -10 -7 -9 -12 6 -26 19 -17 19 -17 7 0 -12 15 -12 17 3 11 9
-3 16 -15 16 -26 0 -10 5 -16 10 -13 6 4 7 12 3 18 -4 7 0 6 10 -2 9 -7 14
-18 10 -24 -3 -5 -1 -7 5 -4 14 9 43 -3 36 -14 -4 -8 17 -14 38 -10 4 0 5 -6
2 -14 -4 -8 -2 -15 4 -15 6 0 13 6 15 13 3 6 6 2 6 -10 1 -16 7 -23 21 -23 11
0 20 -6 20 -12 0 -9 4 -8 10 2 8 13 10 13 10 -2 0 -9 5 -20 12 -24 7 -5 8 -3
3 6 -5 8 -3 11 6 8 8 -3 14 -11 14 -19 0 -8 5 -14 10 -14 26 -2 55 -18 49 -27
-4 -7 -2 -8 5 -4 6 4 9 12 6 17 -4 5 -1 9 4 9 6 0 11 -5 11 -11 0 -5 5 -7 12
-3 6 4 8 3 5 -2 -3 -6 -2 -16 4 -24 7 -12 9 -12 9 3 0 10 5 15 10 12 6 -4 7
-11 4 -17 -5 -7 -1 -9 9 -5 10 4 17 2 17 -4 0 -6 7 -8 16 -5 8 3 12 2 9 -4 -3
-6 -3 -10 2 -11 33 -3 59 -11 61 -20 3 -6 10 -5 20 3 13 11 15 10 10 -4 -9
-22 1 -29 25 -17 10 6 17 7 14 2 -3 -5 3 -14 14 -21 10 -7 19 -8 19 -3 0 5 -6
12 -12 14 -10 4 -10 6 0 6 7 1 20 -8 29 -18 17 -20 48 -18 36 3 -4 6 1 5 10
-3 18 -14 23 -26 8 -16 -5 3 -12 1 -15 -4 -7 -11 13 -9 33 3 10 6 12 5 7 -2
-5 -8 1 -12 14 -12 14 0 19 -4 14 -12 -6 -10 -4 -10 7 -1 14 14 33 18 25 5 -2
-4 7 -13 22 -20 19 -9 23 -9 14 0 -19 19 -14 29 7 16 11 -7 17 -16 14 -22 -4
-5 -1 -6 8 -1 22 14 50 13 56 -2 4 -10 9 -11 19 -2 12 10 13 8 7 -7 -6 -17 -5
-18 12 -4 17 14 17 13 11 -10 -4 -14 -4 -20 1 -14 4 6 18 13 31 17 18 4 22 2
18 -9 -4 -11 -2 -13 11 -6 20 12 53 4 53 -13 0 -7 10 -12 24 -11 18 1 22 4 14
14 -8 9 -7 11 6 6 9 -3 16 -10 16 -14 0 -5 12 -7 28 -6 31 4 54 -3 48 -13 -3
-4 5 -8 17 -8 17 -2 19 0 7 7 -11 7 -12 10 -2 10 8 0 16 -9 19 -20 3 -11 9
-17 14 -15 4 3 6 13 2 23 -3 11 1 9 11 -6 10 -13 22 -19 29 -15 7 4 21 9 31
10 19 3 19 3 0 -19 -10 -13 -12 -17 -4 -10 8 6 29 12 48 12 24 0 31 -3 26 -12
-6 -10 -4 -10 8 0 13 10 17 10 22 -3 3 -10 11 -13 18 -9 7 5 26 7 42 5 20 -2
26 1 21 10 -5 8 -4 10 3 5 6 -4 8 -14 5 -24 -6 -15 -5 -15 10 -3 13 10 17 10
17 1 0 -10 3 -10 14 -1 11 9 16 9 22 0 4 -7 3 -9 -3 -6 -5 3 -10 -1 -10 -9 0
-10 4 -11 11 -4 14 14 29 13 21 -2 -4 -7 4 -2 16 12 13 15 20 18 16 8 -3 -10
0 -19 9 -22 9 -3 12 -1 9 4 -3 6 -1 10 4 10 6 0 11 -6 11 -12 0 -9 4 -8 10 2
9 13 10 13 10 0 0 -13 1 -13 10 0 5 8 10 10 10 4 0 -6 12 -16 26 -22 14 -7 23
-8 20 -3 -3 5 1 11 9 15 8 3 17 0 21 -6 5 -7 2 -8 -6 -3 -9 5 -11 4 -6 -4 6
-9 11 -9 22 0 10 8 14 8 14 1 0 -7 7 -9 17 -5 10 4 14 2 9 -5 -3 -6 -2 -13 3
-17 6 -3 8 6 5 20 -4 23 -3 24 10 13 7 -7 11 -17 8 -23 -3 -5 2 -4 11 4 11 9
17 10 17 2 0 -6 5 -11 11 -11 5 0 8 4 4 9 -3 5 0 13 7 17 7 4 10 4 6 -1 -4 -4
-1 -14 7 -21 16 -16 29 -19 20 -4 -3 5 -1 10 4 10 6 0 11 -4 11 -8 0 -5 7 -9
15 -9 8 0 15 5 15 11 0 5 7 1 15 -10 10 -13 13 -14 10 -3 -4 10 0 16 9 16 8 0
13 -4 10 -8 -2 -4 0 -10 6 -14 5 -3 10 -1 10 6 0 8 4 8 15 -1 12 -10 15 -9 16
6 0 18 1 18 8 -1 8 -19 8 -19 19 0 6 11 12 14 12 8 0 -7 7 -13 15 -13 8 0 15
-6 16 -12 1 -7 5 -2 9 12 l8 25 1 -24 c1 -16 5 -21 16 -18 8 4 17 2 20 -4 4
-5 12 -6 18 -2 21 13 88 10 83 -4 -4 -10 -1 -10 15 0 16 10 21 9 28 -2 7 -11
9 -11 14 0 5 12 6 12 6 0 1 -11 4 -11 16 -1 12 10 15 10 15 -1 0 -11 2 -11 10
1 6 10 10 11 10 3 0 -7 7 -13 16 -13 9 0 12 5 8 13 -4 6 3 3 16 -8 17 -15 22
-16 18 -5 -4 11 0 16 13 16 14 0 16 -3 6 -15 -10 -12 -9 -13 2 -7 8 5 17 3 22
-5 7 -11 9 -11 9 3 0 9 5 20 12 24 7 4 8 3 4 -4 -7 -12 8 -16 51 -13 12 1 26
-5 31 -14 8 -16 9 -16 15 -1 5 11 3 15 -5 10 -7 -4 -8 -3 -4 5 6 8 12 9 20 2
7 -6 17 -7 21 -3 5 4 5 1 1 -6 -8 -13 6 -17 18 -5 3 4 13 8 22 9 11 2 13 -4 9
-19 -5 -19 -5 -20 5 -4 9 13 15 15 31 7 13 -8 19 -8 19 0 0 7 6 8 16 2 9 -5
26 -7 37 -4 11 3 18 1 15 -4 -8 -11 52 -11 71 0 9 6 12 5 7 -2 -3 -6 -1 -14 5
-18 8 -4 9 -3 5 4 -4 7 -2 12 4 12 6 0 8 6 5 13 -4 6 2 3 12 -9 l18 -21 18 21
18 21 -11 -23 c-7 -15 -7 -22 0 -22 5 0 10 5 10 11 0 8 6 7 17 -2 14 -12 16
-12 9 1 -4 8 0 6 10 -5 13 -16 16 -17 11 -3 -3 10 -1 20 5 24 6 4 8 3 5 -3
-12 -19 35 -23 49 -5 12 15 13 14 9 -7 -4 -22 -3 -23 14 -7 12 11 21 13 25 7
4 -6 14 -7 23 -4 12 5 14 3 8 -8 -6 -11 -5 -12 6 -2 17 17 32 17 23 1 -5 -9
-2 -9 9 1 11 9 17 10 17 2 0 -6 5 -11 11 -11 6 0 8 7 5 17 -6 15 -4 15 14 -2
11 -10 23 -15 27 -12 3 4 0 7 -7 7 -7 0 -10 3 -7 7 4 3 16 -2 27 -12 17 -15
20 -16 15 -3 -4 9 -1 19 6 24 7 4 10 3 6 -3 -4 -6 0 -16 7 -22 11 -10 17 -8
25 6 7 12 10 13 11 4 0 -11 3 -11 17 0 14 12 16 12 8 0 -6 -11 -4 -13 7 -8 9
3 20 1 26 -5 6 -6 12 -6 17 3 5 8 4 10 -3 5 -7 -4 -12 -2 -12 4 0 6 8 10 18 8
9 -2 16 -11 14 -19 -2 -8 6 -5 21 10 l25 23 -3 -28 c-2 -26 -2 -27 11 -10 7
11 11 24 7 30 -4 7 -1 7 7 -1 7 -6 19 -9 28 -6 11 5 13 3 7 -8 -8 -12 -6 -12
8 0 11 9 17 10 17 2 0 -6 5 -11 11 -11 5 0 7 5 4 10 -4 6 10 10 35 10 23 0 39
4 36 8 -3 5 1 9 9 9 17 0 19 -8 8 -23 -5 -5 0 -1 10 9 15 17 19 17 34 6 12
-10 14 -10 9 -1 -5 8 0 12 13 12 12 0 21 6 21 13 0 8 3 7 10 -3 8 -12 10 -12
16 3 8 22 25 22 18 -1 -3 -9 2 -5 11 11 18 31 27 36 19 9 -5 -16 -5 -16 9 0
11 14 16 15 26 5 10 -9 11 -8 5 8 -4 11 -3 17 1 12 5 -4 16 0 25 8 10 9 24 15
31 13 8 -2 13 4 13 14 -1 11 4 14 14 11 11 -5 13 -3 7 8 -7 11 -5 11 10 -1 11
-9 16 -10 11 -2 -4 7 -2 12 7 12 8 0 14 7 13 16 0 9 6 19 14 21 13 4 13 3 0
-7 -13 -10 -13 -11 0 -7 8 2 15 13 15 25 0 11 4 24 9 29 5 5 6 3 2 -5 -4 -6
-2 -12 3 -12 6 0 11 5 11 11 0 5 6 7 13 3 8 -5 8 -2 -2 9 -7 9 -9 17 -5 17 5
0 15 10 23 23 13 20 13 21 -2 8 -10 -8 -17 -9 -17 -3 0 6 5 14 11 18 6 3 8 17
5 29 -3 13 -2 27 4 30 6 3 7 -1 4 -9 -3 -9 -2 -16 3 -16 5 0 9 9 10 20 1 11
-4 20 -10 20 -7 0 -6 4 3 10 13 9 13 10 0 10 -11 1 -11 3 3 11 16 9 17 13 4
27 -23 28 -29 43 -16 40 17 -4 20 52 3 59 -8 3 -11 9 -8 14 3 5 -5 9 -18 10
-23 1 -23 1 2 9 17 5 19 8 7 9 -11 1 -20 12 -23 31 -4 17 -11 30 -16 30 -5 0
-6 -4 -3 -10 3 -6 -1 -7 -10 -3 -14 5 -14 8 -3 15 10 7 10 11 1 15 -7 2 -13
11 -13 19 0 17 -11 18 -30 1 -8 -6 -6 -2 5 11 18 22 18 23 0 16 -14 -6 -16 -4
-10 6 6 10 4 12 -10 6 -14 -5 -16 -4 -7 7 9 11 8 14 -6 14 -9 0 -20 -5 -25
-11 -4 -6 -5 2 -3 17 4 25 2 27 -16 21 -14 -4 -18 -2 -14 5 4 6 1 11 -6 11 -9
0 -9 3 2 10 13 9 13 10 0 11 -8 1 -18 1 -21 1 -4 -1 -4 8 -1 20 4 16 2 19 -9
13 -11 -6 -11 -5 -2 5 15 16 -11 60 -36 61 -12 0 -11 2 4 9 19 8 19 9 -2 9
-12 1 -25 6 -29 13 -4 6 -3 8 3 5 5 -3 10 0 10 8 0 8 -4 12 -8 10 -16 -11 -37
7 -34 28 4 22 4 22 -12 2 -15 -20 -15 -20 -10 2 4 17 1 21 -15 18 -15 -3 -18
0 -14 12 6 14 4 14 -11 2 -15 -12 -16 -12 -10 5 7 17 6 17 -10 5 -15 -13 -16
-12 -11 9 4 15 3 20 -5 15 -15 -9 -47 -12 -42 -3 2 3 0 12 -6 20 -7 13 -9 12
-9 -2 0 -10 -4 -18 -10 -18 -5 0 -7 6 -4 14 8 21 -24 28 -36 8 -11 -16 -11
-16 -6 0 6 20 -10 34 -17 16 -3 -7 -6 -2 -7 12 -1 23 -2 23 -10 5 -5 -11 -9
-14 -9 -7 -1 7 -5 10 -11 7 -5 -3 -10 0 -10 7 0 9 -3 9 -10 -2 -9 -13 -10 -13
-10 0 0 13 -1 13 -10 0 -5 -8 -10 -10 -10 -4 0 18 -46 34 -59 21 -6 -6 -11 -7
-11 -1 0 5 -11 11 -26 12 -17 1 -23 -2 -18 -11 4 -7 3 -9 -2 -4 -5 5 -10 13
-10 18 -3 22 -5 23 -13 10 -8 -12 -12 -12 -26 2 -21 21 -24 21 -42 0 -8 -10
-12 -13 -9 -8 2 6 1 17 -5 25 -7 12 -9 11 -10 -5 0 -11 -3 -14 -6 -7 -2 6 -10
9 -16 5 -7 -4 -5 2 3 12 14 17 13 18 -3 9 -20 -11 -80 -6 -72 5 2 4 -2 8 -10
8 -8 0 -12 -4 -9 -9 3 -4 0 -8 -5 -8 -6 0 -11 5 -11 11 0 8 -5 7 -15 -1 -13
-11 -14 -10 -10 2 5 11 -1 14 -25 10 -16 -2 -30 0 -30 6 0 5 -7 13 -16 16 -14
5 -15 4 -4 -9 11 -13 10 -14 -4 -9 -9 3 -16 13 -16 21 0 8 -4 12 -9 8 -5 -3
-12 -1 -16 4 -3 6 -12 8 -20 4 -11 -4 -13 -1 -9 11 3 9 11 13 18 9 7 -4 7 -1
-1 9 -7 8 -9 19 -5 23 4 5 1 5 -6 1 -7 -4 -10 -11 -7 -16 3 -5 0 -12 -7 -16
-7 -4 -10 -4 -6 1 4 4 2 15 -5 23 -8 10 -8 13 -1 9 7 -4 14 0 18 8 3 8 0 17
-6 21 -7 5 -8 2 -3 -7 8 -12 6 -12 -8 0 -20 16 -22 22 -5 18 20 -4 16 27 -6
45 -21 17 -21 17 4 11 23 -6 24 -6 8 10 -9 10 -15 26 -13 37 2 11 0 18 -4 15
-5 -2 -14 2 -21 10 -11 13 -10 14 6 9 18 -6 18 -6 2 7 -10 8 -19 26 -20 42 -1
15 -6 27 -11 27 -4 0 -5 5 -2 10 4 6 12 8 18 4 7 -3 3 2 -7 10 -18 15 -15 21
8 17 5 -1 4 4 -2 12 -12 14 -6 27 12 27 6 0 4 -5 -4 -10 -9 -6 -10 -10 -3 -10
7 0 17 9 23 19 9 17 7 19 -11 16 -12 -3 -18 -1 -15 3 4 4 12 8 17 8 5 1 14 2
19 3 6 0 10 6 10 12 0 5 -6 7 -12 3 -7 -4 1 6 17 22 17 16 33 28 36 27 4 -1 5
11 4 27 -2 22 2 30 13 30 13 0 12 3 -4 16 -10 8 -14 13 -7 10 6 -4 14 3 18 14
4 12 11 17 18 13 6 -4 1 6 -11 22 -20 26 -21 31 -8 41 12 8 12 14 4 22 -13 13
-19 54 -6 46 4 -3 5 2 2 10 -3 9 -9 14 -14 11 -4 -2 -5 7 -2 21 3 18 -1 30
-17 40 -18 13 -19 19 -10 36 10 19 9 20 -11 15 -17 -4 -20 -3 -11 6 16 16 14
30 -3 24 -11 -4 -13 -1 -9 10 5 12 3 14 -6 8 -10 -5 -11 -2 -6 14 5 17 3 20
-11 14 -14 -5 -16 -3 -11 11 4 10 3 15 -3 11 -6 -3 -10 -1 -10 5 0 6 -3 9 -7
7 -5 -3 -16 4 -26 13 -14 13 -15 20 -6 26 8 4 10 3 5 -4 -11 -18 0 -14 15 6 7
9 10 14 5 10 -14 -12 -43 10 -41 31 1 11 4 23 7 27 4 3 5 -6 4 -20 -2 -14 0
-23 4 -21 11 7 9 55 -2 55 -5 0 -6 5 -3 10 4 6 10 8 14 5 5 -2 7 7 5 21 -2 20
0 23 11 14 11 -9 12 -7 8 11 -4 15 -3 20 5 15 8 -5 10 -2 6 9 -4 9 1 21 11 29
14 10 15 15 5 21 -9 6 -11 4 -5 -5 5 -9 4 -11 -3 -6 -9 5 -8 13 3 30 8 12 12
26 8 31 -5 4 -2 5 5 1 11 -6 14 0 11 20 0 4 5 11 13 15 10 7 10 9 0 9 -7 0
-10 5 -6 12 4 7 3 8 -4 4 -7 -4 -12 -1 -12 9 0 9 4 14 8 11 4 -2 8 4 8 15 0
10 -4 19 -9 19 -5 0 -3 8 4 17 12 14 12 15 0 9 -10 -7 -12 -3 -6 14 5 15 3 20
-3 16 -6 -3 -13 -2 -17 4 -3 5 -2 10 2 10 22 0 10 42 -17 58 -23 15 -26 21
-18 36 7 13 7 17 0 12 -5 -3 -13 1 -16 10 -3 9 -11 12 -18 8 -9 -6 -9 -3 0 9
12 14 11 16 -8 12 -18 -3 -20 -1 -14 18 6 18 5 20 -8 10 -15 -13 -28 -8 -28
11 0 6 5 4 10 -4 7 -10 10 -11 10 -2 0 7 -8 16 -17 19 -10 4 -24 14 -31 22
-11 13 -12 13 -6 1 6 -13 5 -13 -9 0 -20 20 -37 85 -26 99 6 7 5 8 -2 2 -6 -5
-18 -7 -26 -4 -11 4 -10 8 4 20 10 8 13 12 7 9 -6 -3 -16 4 -24 14 -8 10 -17
17 -22 14 -4 -3 -5 2 -2 10 4 10 -6 28 -27 48 -19 17 -27 28 -19 23 13 -8 13
-7 1 8 -11 14 -16 15 -29 5 -13 -12 -14 -10 -3 11 7 13 9 21 3 17 -5 -3 -15 0
-21 8 -6 7 -25 16 -41 20 -22 4 -28 9 -23 22 5 14 3 15 -15 5 -18 -9 -21 -9
-16 3 6 16 -9 28 -40 30 -11 1 -20 7 -19 14 2 8 -4 9 -22 2 -20 -8 -23 -7 -18
8 6 14 4 15 -9 4 -13 -10 -18 -10 -24 -1 -5 8 -3 9 7 4 12 -8 12 -6 0 8 -9 12
-18 14 -30 7 -13 -6 -20 -3 -29 11 -7 11 -17 17 -22 14 -6 -4 -8 -11 -4 -16 3
-5 10 -6 16 -3 7 4 8 2 4 -4 -5 -9 -13 -8 -30 3 -12 8 -27 12 -31 8 -5 -5 -3
0 4 10 12 15 12 17 -3 11 -9 -3 -16 -11 -16 -16 0 -6 -8 0 -18 13 -15 17 -21
19 -27 9 -5 -8 -4 -11 3 -6 6 3 13 2 16 -3 4 -5 -2 -8 -11 -6 -10 1 -25 -2
-33 -8 -12 -9 -13 -9 -2 3 16 18 16 38 0 22 -16 -16 -31 -15 -22 1 6 9 4 9 -7
1 -12 -9 -33 -11 -41 -4 -10 7 -39 7 -44 -1 -3 -5 -11 -9 -17 -9 -7 0 -6 4 3
10 11 7 0 10 -38 10 -36 0 -51 -4 -46 -11 4 -8 1 -8 -12 -1 -11 5 -27 8 -36 7
-15 -3 -16 0 -6 18 10 20 10 21 -6 8 -9 -8 -19 -11 -23 -7 -3 3 -1 6 5 6 8 0
9 7 2 26 -7 16 -7 23 0 19 9 -6 14 23 11 65 0 10 1 11 5 3 8 -18 27 -16 21 1
-4 10 0 14 13 11 13 -3 17 1 13 11 -4 10 0 12 13 8 17 -6 17 -5 -1 9 -17 14
-18 18 -5 26 8 5 17 8 21 5 4 -2 10 0 13 5 4 5 1 13 -5 17 -8 5 -9 3 -4 -6 5
-9 4 -11 -4 -6 -9 6 -9 11 -1 21 7 8 8 20 4 27 -4 7 -4 10 1 6 4 -4 15 -2 24
5 14 11 15 10 1 -8 -14 -18 -14 -19 2 -6 14 10 15 17 7 33 -6 11 -7 18 -2 15
4 -3 17 2 28 10 19 15 19 15 -4 8 -16 -5 -21 -4 -17 4 4 6 14 11 22 11 8 0 12
5 9 10 -4 6 -12 7 -18 3 -7 -4 -6 1 2 11 8 9 20 15 28 12 9 -4 11 -2 6 7 -14
22 -13 39 2 27 10 -8 15 -8 21 1 4 7 3 9 -4 5 -6 -4 -10 1 -9 13 1 16 4 18 16
8 12 -10 13 -9 4 7 -8 14 -5 24 13 43 18 20 21 29 13 44 -8 15 -6 19 6 19 12
0 14 4 5 19 -9 17 -7 19 12 16 22 -4 22 -4 4 10 -11 8 -14 15 -7 15 7 0 11 9
9 23 -2 13 2 21 10 20 6 -2 12 2 12 8 0 5 6 7 13 3 7 -5 7 -1 -3 12 -22 30
-24 30 -16 9 5 -15 4 -17 -5 -8 -12 12 -3 37 11 28 5 -3 11 -1 15 5 3 5 1 10
-6 10 -8 0 -7 5 2 17 8 9 10 14 4 11 -6 -4 -10 6 -10 22 0 15 4 26 9 22 5 -3
7 11 3 31 -3 22 -2 37 4 37 6 0 7 -5 3 -12 -5 -7 -3 -8 5 -4 10 6 9 12 -2 24
-24 29 -28 40 -16 48 8 4 9 3 5 -4 -5 -8 -1 -10 10 -5 11 4 13 8 6 11 -7 2 -9
9 -6 14 4 6 3 8 -2 5 -6 -3 -16 4 -24 16 -11 19 -11 20 1 10 12 -10 15 -8 15
7 0 10 -5 16 -10 13 -5 -4 -7 3 -4 15 4 12 3 20 -2 17 -13 -8 -19 22 -7 35 9
10 9 11 0 6 -8 -4 -13 -1 -13 8 0 9 -4 16 -10 16 -5 0 -10 5 -10 11 0 5 4 8 8
5 5 -3 9 2 9 10 0 10 -4 11 -11 4 -12 -12 -27 -13 -25 -2 3 19 -2 42 -8 41
-21 -3 -33 2 -33 16 0 8 -5 15 -11 15 -8 0 -7 6 2 17 13 15 12 15 -10 4 -15
-8 -21 -9 -17 -2 4 6 0 14 -8 17 -9 3 -13 10 -10 15 3 5 -2 9 -10 9 -9 0 -16
5 -16 11 0 5 -5 7 -12 3 -6 -4 -8 -3 -5 4 10 15 -3 43 -16 35 -6 -3 -7 -1 -3
6 6 9 12 9 24 -1 14 -11 14 -9 -1 8 -9 11 -15 23 -12 26 3 3 -2 11 -12 19 -14
12 -16 12 -8 0 6 -10 4 -12 -4 -7 -7 5 -10 15 -7 23 5 11 2 13 -10 9 -15 -6
-15 -4 -3 11 9 11 10 14 2 9 -8 -4 -13 -1 -13 8 0 10 -9 16 -22 17 -13 0 -17
3 -10 6 6 2 12 9 12 14 0 6 -4 7 -10 4 -5 -3 -10 -1 -10 4 0 6 -5 11 -11 11
-5 0 -7 -6 -3 -12 5 -9 2 -9 -9 1 -9 7 -17 23 -18 35 0 20 -1 21 -9 1 -5 -11
-9 -14 -9 -7 -1 17 -20 36 -51 51 l-25 12 25 -20 c14 -11 21 -21 17 -21 -5 0
-23 15 -40 33 -17 17 -27 26 -23 20 4 -8 1 -13 -9 -13 -9 0 -13 5 -10 10 9 14
-8 12 -24 -2 -11 -11 -13 -10 -9 2 4 12 -1 15 -20 14 -14 0 -28 -6 -30 -13 -3
-8 -9 -6 -19 6 -8 10 -12 12 -8 6z m-904 -836 c-6 -8 -7 -18 -3 -22 4 -5 1 -5
-6 -1 -10 6 -10 11 -1 22 6 8 14 14 16 14 3 0 0 -6 -6 -13z m1434 -217 c-3 -5
-11 -10 -16 -10 -6 0 -7 5 -4 10 3 6 11 10 16 10 6 0 7 -4 4 -10z m-1766 -203
c0 -9 -2 -8 -6 1 -2 6 -10 9 -15 6 -7 -4 -8 -2 -4 5 9 13 26 5 25 -12z m2014
-372 c-3 -9 -8 -14 -10 -11 -3 3 -2 9 2 15 9 16 15 13 8 -4z m137 -51 c0 -2
-7 -4 -15 -4 -8 0 -15 4 -15 10 0 5 7 7 15 4 8 -4 15 -8 15 -10z m100 -69 c7
-9 8 -15 2 -15 -5 0 -12 7 -16 15 -3 8 -4 15 -2 15 2 0 9 -7 16 -15z m-2358
-122 c-6 -2 -9 -10 -6 -15 4 -7 2 -8 -5 -4 -13 9 -5 26 12 25 9 0 8 -2 -1 -6z
m2505 -95 c-3 -8 -6 -5 -6 6 -1 11 2 17 5 13 3 -3 4 -12 1 -19z m213 -248 c0
-5 -2 -10 -4 -10 -3 0 -8 5 -11 10 -3 6 -1 10 4 10 6 0 11 -4 11 -10z m17
-187 c0 -9 -4 -10 -14 -2 -7 6 -13 12 -13 14 0 1 6 2 13 2 8 0 14 -6 14 -14z
m-3313 -101 c3 -5 -1 -9 -9 -9 -8 0 -12 4 -9 9 3 4 7 8 9 8 2 0 6 -4 9 -8z
m-103 -519 c13 -16 12 -17 -3 -4 -10 7 -18 15 -18 17 0 8 8 3 21 -13z m3474
-183 c-3 -5 -12 -10 -18 -10 -7 0 -6 4 3 10 19 12 23 12 15 0z m15 -515 c11
-13 10 -14 -4 -9 -9 3 -16 10 -16 15 0 13 6 11 20 -6z m471 -112 c13 -16 12
-17 -3 -4 -17 13 -22 21 -14 21 2 0 10 -8 17 -17z m676 -598 c0 -8 -4 -15 -9
-15 -10 0 -11 14 -1 23 9 10 10 9 10 -8z m-3802 -5 c3 -6 -1 -7 -9 -4 -18 7
-21 14 -7 14 6 0 13 -4 16 -10z m3810 -88 c-3 -3 -11 0 -18 7 -9 10 -8 11 6 5
10 -3 15 -9 12 -12z m-2698 -234 c-3 -8 -6 -5 -6 6 -1 11 2 17 5 13 3 -3 4
-12 1 -19z m307 -40 c-3 -4 -9 -8 -15 -8 -5 0 -9 4 -9 8 0 5 7 9 15 9 8 0 12
-4 9 -9z"/>
<path d="M2560 5510 c-9 -6 -10 -10 -3 -10 6 0 15 5 18 10 8 12 4 12 -15 0z"/>
<path d="M3480 5360 c0 -5 5 -10 11 -10 5 0 7 5 4 10 -3 6 -8 10 -11 10 -2 0
-4 -4 -4 -10z"/>
<path d="M2214 5104 c-18 -14 -18 -15 4 -4 12 6 22 13 22 15 0 8 -5 6 -26 -11z"/>
<path d="M1683 4473 c4 -3 -1 -16 -10 -27 -18 -21 -18 -21 4 -2 20 16 23 36 6
36 -4 0 -3 -3 0 -7z"/>
<path d="M3330 4200 c0 -5 5 -10 11 -10 5 0 7 5 4 10 -3 6 -8 10 -11 10 -2 0
-4 -4 -4 -10z"/>
<path d="M1193 3445 c0 -8 4 -12 9 -9 5 3 6 10 3 15 -9 13 -12 11 -12 -6z"/>
<path d="M4367 3296 c-4 -10 -1 -13 8 -9 8 3 12 9 9 14 -7 12 -11 11 -17 -5z"/>
<path d="M4431 2886 c-9 -10 -9 -16 -1 -21 6 -4 14 -4 17 -1 4 3 1 6 -7 6 -10
0 -10 3 0 15 7 8 10 15 7 15 -2 0 -10 -6 -16 -14z"/>
<path d="M938 2603 c7 -3 16 -2 19 1 4 3 -2 6 -13 5 -11 0 -14 -3 -6 -6z"/>
<path d="M938 2483 c7 -3 16 -2 19 1 4 3 -2 6 -13 5 -11 0 -14 -3 -6 -6z"/>
<path d="M973 2191 c0 -11 5 -18 9 -15 4 3 5 11 1 19 -7 21 -12 19 -10 -4z"/>
<path d="M1300 1641 c0 -5 7 -12 16 -15 14 -5 15 -4 4 9 -14 17 -20 19 -20 6z"/>
<path d="M1555 1430 c-3 -5 -1 -10 4 -10 6 0 11 5 11 10 0 6 -2 10 -4 10 -3 0
-8 -4 -11 -10z"/>
<path d="M5405 909 c-4 -6 -5 -12 -2 -15 2 -3 7 2 10 11 7 17 1 20 -8 4z"/>
</g>
</svg>
